<?xml version="1.0" encoding="utf-8"?>
<!-- Generator: Adobe Illustrator 17.0.0, SVG Export Plug-In . SVG Version: 6.00 Build 0)  -->
<!DOCTYPE svg PUBLIC "-//W3C//DTD SVG 1.1//EN" "http://www.w3.org/Graphics/SVG/1.1/DTD/svg11.dtd">
<svg version="1.1" id="Layer_2" xmlns="http://www.w3.org/2000/svg" xmlns:xlink="http://www.w3.org/1999/xlink" x="0px" y="0px"
	 width="41px" height="40px" viewBox="0 0 41 40" enable-background="new 0 0 41 40" xml:space="preserve">
<g>
	<path fill="#EFF1F5" d="M20,3c9.374,0,17,7.626,17,17s-7.626,17-17,17S3,29.374,3,20S10.626,3,20,3 M20,0C8.954,0,0,8.954,0,20
		s8.954,20,20,20s20-8.954,20-20S31.046,0,20,0L20,0z"/>
</g>
<polygon fill="#EFF1F5" points="10.701,19.189 29.299,11.015 21.125,29.614 18.704,21.61 "/>
<line fill="none" stroke="#EFF1F5" stroke-width="3" stroke-miterlimit="10" x1="0" y1="20" x2="8.144" y2="20"/>
<line fill="none" stroke="#EFF1F5" stroke-width="3" stroke-miterlimit="10" x1="20" y1="0" x2="20" y2="8.144"/>
<line fill="none" stroke="#EFF1F5" stroke-width="3" stroke-miterlimit="10" x1="40" y1="20" x2="31.856" y2="20"/>
<line fill="none" stroke="#EFF1F5" stroke-width="3" stroke-miterlimit="10" x1="20" y1="40" x2="20" y2="31.856"/>
</svg>
